# xmcd CD database file
#
# Track frame offsets:
#	150
#	20955
#	57019
#	85419
#	92189
#	128914
#	185253
#	199706
#	235546
#
# Disc length: 3541 seconds
#
# Revision: 0
# Processed by: cddbd v1.5.2PL0 Copyright (c) Steve Scherf et al.
# Submitted via: CDex 1.51
#
DISCID=720dd309
DTITLE=Sven Decker's JULI Quartett - Lost in Poll
DYEAR=2018
DGENRE=Jazz
TTITLE0=Blues from the Hill
TTITLE1=Dialects
TTITLE2=Restless
TTITLE3=Red Cheeks
TTITLE4=7:30 am
TTITLE5=Fulton Shoes
TTITLE6=Ratzefummel
TTITLE7=Lost in Poll
TTITLE8=Flavours
EXTD=YEAR: 2018
EXTT0=
EXTT1=
EXTT2=
EXTT3=
EXTT4=
EXTT5=
EXTT6=
EXTT7=
EXTT8=
PLAYORDER=
